<?xml version="1.0" standalone="no"?>
<!DOCTYPE svg PUBLIC "-//W3C//DTD SVG 20010904//EN"
 "http://www.w3.org/TR/2001/REC-SVG-20010904/DTD/svg10.dtd">
<svg version="1.0" xmlns="http://www.w3.org/2000/svg"
 width="400.000000pt" height="400.000000pt" viewBox="0 0 400.000000 400.000000"
 preserveAspectRatio="xMidYMid meet">

<g transform="translate(0.000000,400.000000) scale(0.100000,-0.100000)"
fill="#000000" stroke="none">
<path d="M1660 3413 c-25 -3 -49 -8 -54 -14 -6 -5 -29 -9 -53 -9 -23 0 -59 -7
-80 -16 -65 -28 -77 -33 -123 -45 -25 -7 -52 -18 -61 -26 -8 -7 -23 -13 -32
-13 -9 0 -19 -4 -22 -10 -3 -5 -23 -17 -43 -26 -20 -8 -44 -20 -52 -25 -8 -5
-23 -12 -32 -15 -10 -4 -18 -10 -18 -15 0 -5 -6 -9 -14 -9 -8 0 -16 -4 -18 -8
-1 -5 -30 -29 -63 -54 -91 -69 -235 -214 -235 -238 0 -5 -4 -10 -8 -10 -13 0
-127 -179 -153 -240 -12 -30 -26 -57 -29 -60 -4 -3 -9 -14 -13 -25 -3 -11 -15
-45 -26 -75 -12 -30 -21 -66 -21 -80 0 -14 -4 -30 -9 -35 -21 -22 -34 -132
-38 -320 -4 -209 -3 -220 51 -434 16 -62 22 -78 73 -191 40 -89 129 -240 141
-240 4 0 15 -12 24 -28 9 -15 33 -45 52 -67 20 -22 36 -43 36 -47 0 -5 4 -8 9
-8 5 0 31 -22 59 -49 27 -27 67 -61 89 -77 21 -16 40 -32 43 -35 3 -3 21 -14
40 -25 19 -10 39 -25 43 -31 4 -7 14 -13 21 -13 20 0 76 -30 76 -41 0 -5 11
-9 24 -9 13 0 26 -3 28 -7 4 -11 75 -43 93 -43 9 0 23 -4 33 -9 16 -8 66 -23
167 -50 54 -15 218 -34 285 -33 83 1 264 22 275 33 5 5 20 9 35 9 27 0 135 32
146 43 4 4 16 7 27 7 10 0 31 6 45 14 15 8 65 33 112 56 103 50 117 59 149 87
14 13 29 23 33 23 9 0 40 26 99 80 21 19 46 42 56 51 47 41 151 170 192 239
19 30 36 57 40 60 12 10 61 116 61 133 0 9 5 17 10 17 6 0 10 8 10 19 0 10 7
24 15 31 8 7 15 27 15 44 0 17 7 40 15 50 8 11 15 37 15 57 0 21 5 41 10 44 6
3 10 23 10 43 0 20 7 62 15 92 17 64 20 283 4 345 -12 51 -29 138 -36 192 -3
23 -11 47 -19 54 -8 6 -14 29 -14 49 0 21 -3 40 -7 42 -5 2 -15 19 -24 38 -9
19 -28 59 -43 88 -14 30 -26 58 -26 62 0 5 -10 20 -23 34 -12 13 -29 37 -37
53 -26 50 -103 146 -173 216 -63 62 -168 147 -182 147 -3 0 -16 11 -29 25 -13
14 -30 25 -39 25 -8 0 -17 7 -21 15 -3 8 -13 15 -23 16 -10 0 -31 9 -48 20
-16 10 -37 22 -45 25 -8 3 -36 17 -61 30 -26 13 -56 24 -67 24 -12 0 -24 5
-27 10 -3 6 -19 10 -34 10 -15 0 -32 5 -38 11 -10 10 -63 21 -193 39 -64 9
-281 10 -370 3z m88 -370 c15 -10 30 -22 34 -28 3 -6 17 -22 30 -36 49 -55 68
-80 68 -89 0 -6 3 -10 8 -10 4 0 16 -17 27 -37 11 -21 23 -40 27 -43 11 -9
138 -263 138 -278 0 -7 9 -30 20 -51 40 -79 68 -172 77 -252 l5 -47 -54 -6
c-29 -4 -75 -8 -102 -9 l-49 -2 -40 95 c-23 52 -50 104 -62 115 -12 12 -28 35
-36 53 -7 18 -18 32 -24 32 -5 1 -32 23 -60 50 -27 28 -56 50 -62 50 -7 0 -13
4 -13 9 0 5 -17 20 -37 32 -21 13 -39 27 -41 31 -2 4 -12 8 -23 8 -10 0 -19 5
-19 10 0 6 -7 10 -16 10 -9 0 -28 6 -42 14 -15 7 -38 18 -52 24 -70 30 -97 40
-112 46 -16 5 -18 19 -18 111 0 59 4 105 9 105 6 0 18 13 27 30 10 16 38 40
63 54 42 22 58 24 174 25 105 1 133 -2 155 -16z m344 -2 c26 -6 55 -14 65 -19
10 -6 44 -22 76 -37 66 -32 81 -53 74 -104 -8 -60 10 -331 28 -406 9 -38 19
-86 22 -105 3 -19 9 -40 14 -46 5 -6 12 -31 15 -55 6 -40 4 -46 -19 -58 -45
-24 -60 -12 -85 69 -13 41 -30 87 -38 102 -8 14 -14 42 -14 62 0 20 -4 36 -10
36 -5 0 -10 11 -10 24 0 13 -6 29 -14 35 -7 6 -19 33 -26 59 -12 43 -28 81
-51 122 -5 8 -16 31 -25 50 -9 19 -21 44 -27 55 -6 11 -18 33 -26 50 -9 16
-19 32 -22 35 -3 3 -20 26 -37 52 -17 25 -37 48 -43 50 -7 2 -9 13 -4 27 6 21
11 23 59 18 28 -3 72 -10 98 -16z m350 -218 c10 -9 18 -22 18 -28 0 -7 7 -15
15 -19 8 -3 15 -15 15 -26 0 -11 5 -20 10 -20 6 0 10 -10 10 -22 0 -12 7 -30
17 -40 13 -15 16 -42 17 -152 1 -132 -2 -147 -41 -215 -6 -11 -42 47 -43 69 0
13 -6 42 -14 65 -17 47 -33 164 -41 292 -8 114 -1 131 37 96z m7 -723 c44 -22
111 -82 111 -98 0 -6 6 -15 13 -19 7 -4 21 -26 32 -48 11 -22 23 -42 26 -45
21 -16 29 -279 12 -365 -10 -49 -33 -115 -43 -125 -9 -9 -30 -44 -40 -68 -5
-12 -23 -36 -40 -52 -16 -16 -30 -34 -30 -40 0 -5 -4 -10 -8 -10 -4 0 -21 -11
-37 -25 -47 -39 -103 -74 -130 -81 -32 -8 -43 17 -22 49 8 12 17 38 20 57 3
19 15 69 28 110 21 69 23 93 22 320 0 144 -5 256 -11 270 -5 15 -13 56 -17 93
-7 60 -5 67 11 73 11 3 26 9 34 14 22 13 27 12 69 -10z m-218 -57 c1 -36 6
-69 18 -113 11 -38 25 -203 24 -285 0 -99 -15 -241 -29 -278 -8 -20 -14 -53
-14 -72 0 -19 -4 -35 -10 -35 -5 0 -10 -13 -10 -29 0 -16 -7 -34 -15 -41 -8
-7 -15 -23 -15 -36 0 -13 -4 -24 -10 -24 -5 0 -10 -9 -10 -20 0 -11 -8 -23
-17 -26 -10 -3 -26 -10 -35 -15 -23 -12 -631 -12 -644 0 -5 5 -20 11 -34 13
-37 5 -36 33 2 67 18 17 37 31 41 31 13 0 177 156 177 168 0 5 11 15 25 22 14
7 25 18 25 23 0 5 11 20 25 33 14 13 25 26 25 29 0 7 13 24 53 66 15 16 27 35
28 42 0 7 9 26 19 42 39 63 53 93 87 190 19 55 37 128 40 161 6 69 16 78 96
90 23 4 49 10 57 15 8 5 34 9 58 9 39 0 42 -2 43 -27z"/>
</g>
</svg>
